# Blender 4.0.2
# www.blender.org
mtllib shard.mtl
o Cone
v 6.098460 1.928164 -0.548586
v -3.310991 1.914545 -0.620209
v -0.264416 -2.327823 -0.620210
v -0.120403 1.226409 1.722029
v -0.940077 0.597163 1.869776
v -1.460693 0.999200 1.670611
v 4.733831 2.178684 0.043216
v 2.671528 1.417031 -1.561415
v 4.932866 2.571265 -0.548586
v 0.842871 0.914658 -2.199353
v 0.152369 0.121909 -1.977992
v -0.564152 1.031668 -1.977992
vn 0.3647 -0.5003 0.7853
vn -0.4969 -0.3629 -0.7883
vn -0.7321 -0.5448 0.4089
vn -0.0761 0.9084 0.4111
vn -0.0938 0.3418 0.9351
vn 0.3877 0.7027 0.5966
vn 0.2096 0.3799 -0.9010
vn -0.0391 0.7590 -0.6499
vn -0.1646 -0.1297 -0.9778
vn 0.3436 -0.4765 -0.8093
vt 0.250000 0.370000
vt 0.250000 0.250000
vt 0.490000 0.250000
vt 0.430000 0.310000
vt 0.370000 0.370000
vt 0.250000 0.130000
vt 0.010000 0.250000
vt 0.130000 0.130000
vt 0.130000 0.370000
vt 0.750000 0.250000
vt 0.510000 0.250000
vt 0.630000 0.370000
vt 0.870000 0.370000
vt 0.930000 0.310000
vt 0.000000 0.000000
vt 0.990000 0.250000
vt 0.870000 0.130000
vt 0.810000 0.070000
vt 0.630000 0.130000
vt 0.310000 0.070000
vt 0.370000 0.130000
s 0
f 5/1/1 3/2/1 1/3/1 7/4/1 4/5/1
f 11/6/2 3/2/2 2/7/2 12/8/2
f 2/7/3 3/2/3 5/1/3 6/9/3
f 9/10/4 2/11/4 6/12/4 4/13/4 7/14/4
f 5/15/5 4/15/5 6/15/5
f 1/16/6 9/10/6 7/14/6
f 1/16/7 8/17/7 9/10/7
f 8/17/8 10/18/8 12/19/8 2/11/8 9/10/8
f 10/15/9 11/15/9 12/15/9
f 1/3/10 3/2/10 11/6/10 10/20/10 8/21/10
